<svg xmlns="http://www.w3.org/2000/svg" viewBox="0 0 1340 780" font-family="'Inter','Segoe UI',Arial,sans-serif">
<defs><marker id="ah" markerWidth="9" markerHeight="9" refX="7.5" refY="3" orient="auto">
  <path d="M0,0 L8,3 L0,6 z" fill="#303090"/></marker></defs>
<style>
  .bt{fill:#fff;font-size:11px;font-weight:700;}
  .bl{fill:#181833;font-size:10px;}
  .appt{fill:#fff;font-size:15px;font-weight:700;}
  .apps{fill:#a9abd6;font-size:10px;}
  .arr{stroke:#3a3a7a;stroke-width:1.6;fill:none;}
  .arr--d{stroke:#76a700;stroke-dasharray:5 4;}
  .al{fill:#303090;font-size:9px;font-weight:700;text-anchor:middle;}
  .zone{fill:#6a6a8a;font-size:11px;font-weight:700;letter-spacing:.12em;}
  .legttl{fill:#00002d;font-size:11px;font-weight:700;}
  .legtxt{fill:#41435f;font-size:10px;}
</style>
<rect x="360" y="24" width="168" height="34" rx="7" fill="#ffffff" stroke="#c7d0df" stroke-width="1.2"/>
<rect x="360" y="24" width="168" height="22" rx="7" fill="#2a2a6a"/>
<rect x="360" y="39" width="168" height="7" fill="#2a2a6a"/>
<rect x="360" y="46" width="168" height="2.5" fill="#dbff55"/>
<text x="370" y="39" class="bt">Release Manager (ES-6)</text>
<rect x="540" y="24" width="168" height="34" rx="7" fill="#ffffff" stroke="#c7d0df" stroke-width="1.2"/>
<rect x="540" y="24" width="168" height="22" rx="7" fill="#2a2a6a"/>
<rect x="540" y="39" width="168" height="7" fill="#2a2a6a"/>
<rect x="540" y="46" width="168" height="2.5" fill="#dbff55"/>
<text x="550" y="39" class="bt">CE / Fachingenieur</text>
<rect x="720" y="24" width="168" height="34" rx="7" fill="#ffffff" stroke="#c7d0df" stroke-width="1.2"/>
<rect x="720" y="24" width="168" height="22" rx="7" fill="#2a2a6a"/>
<rect x="720" y="39" width="168" height="7" fill="#2a2a6a"/>
<rect x="720" y="46" width="168" height="2.5" fill="#dbff55"/>
<text x="730" y="39" class="bt">WMM-Steward</text>
<rect x="900" y="24" width="168" height="34" rx="7" fill="#ffffff" stroke="#c7d0df" stroke-width="1.2"/>
<rect x="900" y="24" width="168" height="22" rx="7" fill="#2a2a6a"/>
<rect x="900" y="39" width="168" height="7" fill="#2a2a6a"/>
<rect x="900" y="46" width="168" height="2.5" fill="#dbff55"/>
<text x="910" y="39" class="bt">MIA-Koordinator</text>
<rect x="340" y="96" width="600" height="540" rx="10" fill="#f3f3fb" stroke="#303090" stroke-width="2"/>
<rect x="340" y="96" width="600" height="40" rx="10" fill="#00002d"/>
<rect x="340" y="126" width="600" height="10" fill="#00002d"/>
<rect x="340" y="136" width="600" height="3" fill="#dbff55"/>
<text x="356" y="114" class="appt">FreigabecockpitNEXT</text>
<text x="356" y="129" class="apps">Power Apps Code App · Microsoft Dataverse</text>
<rect x="362" y="150" width="556" height="84" rx="7" fill="#ffffff" stroke="#c7d0df" stroke-width="1.2"/>
<rect x="362" y="150" width="556" height="22" rx="7" fill="#303090"/>
<rect x="362" y="165" width="556" height="7" fill="#303090"/>
<rect x="362" y="172" width="556" height="2.5" fill="#dbff55"/>
<text x="372" y="165" class="bt">1 · Datenaufnahme &amp; Abgleich</text>
<text x="372" y="188" class="bl">IP3-Termine · Stücklisten/SNR · DEEP-Verbundtermine</text>
<text x="372" y="202" class="bl">Deduplizierung · Differenzlogik (SNR-Änderungen)</text>
<rect x="362" y="254" width="556" height="84" rx="7" fill="#ffffff" stroke="#c7d0df" stroke-width="1.2"/>
<rect x="362" y="254" width="556" height="22" rx="7" fill="#303090"/>
<rect x="362" y="269" width="556" height="7" fill="#303090"/>
<rect x="362" y="276" width="556" height="2.5" fill="#dbff55"/>
<text x="372" y="269" class="bt">2 · WMM-Pflege</text>
<text x="372" y="292" class="bl">Zusammenbau prüfen/anlegen (ID = ZB_HVS)</text>
<text x="372" y="306" class="bl">SNR zuordnen · Delta anzeigen &amp; überschreiben</text>
<path d="M640,234 L640,254" class="arr" marker-end="url(#ah)"/>
<rect x="362" y="358" width="556" height="84" rx="7" fill="#ffffff" stroke="#c7d0df" stroke-width="1.2"/>
<rect x="362" y="358" width="556" height="22" rx="7" fill="#303090"/>
<rect x="362" y="373" width="556" height="7" fill="#303090"/>
<rect x="362" y="380" width="556" height="2.5" fill="#dbff55"/>
<text x="372" y="373" class="bt">3 · Planung &amp; Freigabe (User-Interface)</text>
<text x="372" y="396" class="bl">Übersichtsgrid (HVS × Woche) · Live-Filter · Verbund bilden</text>
<text x="372" y="410" class="bl">Batch-Change · Ist-Freigabe je Speicher × I-Stufe setzen</text>
<path d="M640,338 L640,358" class="arr" marker-end="url(#ah)"/>
<rect x="362" y="462" width="556" height="84" rx="7" fill="#ffffff" stroke="#c7d0df" stroke-width="1.2"/>
<rect x="362" y="462" width="556" height="22" rx="7" fill="#303090"/>
<rect x="362" y="477" width="556" height="7" fill="#303090"/>
<rect x="362" y="484" width="556" height="2.5" fill="#dbff55"/>
<text x="372" y="477" class="bt">4 · Output-Erzeugung</text>
<text x="372" y="500" class="bl">Jira-Tickets (I-Stufe+PTH+Level) + Epic · MIA-Anlagen</text>
<text x="372" y="514" class="bl">Freigabetemplate (Word→SharePoint) · Status/Links</text>
<path d="M640,442 L640,462" class="arr" marker-end="url(#ah)"/>
<path d="M624,58 L640,96" class="arr" marker-end="url(#ah)"/>
<rect x="519.5" y="62" width="225" height="13" rx="2" fill="#fff" opacity="0.9"/>
<text x="632" y="72" class="al">bestätigen · Verbund · Batch-Change</text>
<rect x="40" y="110" width="250" height="78" rx="7" fill="#ffffff" stroke="#c7d0df" stroke-width="1.2"/>
<rect x="40" y="110" width="250" height="22" rx="7" fill="#12124a"/>
<rect x="40" y="125" width="250" height="7" fill="#12124a"/>
<rect x="40" y="132" width="250" height="2.5" fill="#dbff55"/>
<text x="50" y="125" class="bt">IP3</text>
<text x="50" y="148" class="bl">IP3 Appointment Project</text>
<text x="50" y="162" class="bl">Data Semantic (CDH)</text>
<text x="50" y="176" class="bl">Langfristtermine / Musterphase</text>
<rect x="40" y="226" width="250" height="78" rx="7" fill="#ffffff" stroke="#c7d0df" stroke-width="1.2"/>
<rect x="40" y="226" width="250" height="22" rx="7" fill="#12124a"/>
<rect x="40" y="241" width="250" height="7" fill="#12124a"/>
<rect x="40" y="248" width="250" height="2.5" fill="#dbff55"/>
<text x="50" y="241" class="bt">Stücklisten (CDH)</text>
<text x="50" y="264" class="bl">PS-BOM-Semantic-Layer (Serie)</text>
<text x="50" y="278" class="bl">Everest Demand Data (Proto)</text>
<text x="50" y="292" class="bl">SNR je HVS-ID</text>
<rect x="40" y="360" width="250" height="64" rx="7" fill="#ffffff" stroke="#c7d0df" stroke-width="1.2"/>
<rect x="40" y="360" width="250" height="22" rx="7" fill="#12124a"/>
<rect x="40" y="375" width="250" height="7" fill="#12124a"/>
<rect x="40" y="382" width="250" height="2.5" fill="#dbff55"/>
<text x="50" y="375" class="bt">DEEP</text>
<text x="50" y="398" class="bl">Kurzfristplanung · Verbund</text>
<text x="50" y="412" class="bl">Jira CodeCraft / ATC / SW-HRL</text>
<rect x="40" y="470" width="250" height="50" rx="7" fill="#ffffff" stroke="#c7d0df" stroke-width="1.2"/>
<rect x="40" y="470" width="250" height="22" rx="7" fill="#12124a"/>
<rect x="40" y="485" width="250" height="7" fill="#12124a"/>
<rect x="40" y="492" width="250" height="2.5" fill="#dbff55"/>
<text x="50" y="485" class="bt">ESDH / Excel</text>
<text x="50" y="508" class="bl">I-Stufen-Folgen · Export</text>
<path d="M290,149 L340,180" class="arr arr--d" marker-end="url(#ah)"/>
<rect x="283.1" y="151.5" width="63.800000000000004" height="13" rx="2" fill="#fff" opacity="0.9"/>
<text x="315" y="161.5" class="al">API / CDH</text>
<path d="M290,265 L340,200" class="arr arr--d" marker-end="url(#ah)"/>
<path d="M290,392 L340,378" class="arr arr--d" marker-end="url(#ah)"/>
<rect x="255.2" y="372" width="119.60000000000001" height="13" rx="2" fill="#fff" opacity="0.9"/>
<text x="315" y="382" class="al">Verbund / I-Stufen</text>
<path d="M290,495 L340,220" class="arr arr--d" marker-end="url(#ah)"/>
<rect x="40" y="560" width="250" height="56" rx="7" fill="#ffffff" stroke="#c7d0df" stroke-width="1.2"/>
<rect x="40" y="560" width="250" height="22" rx="7" fill="#76a700"/>
<rect x="40" y="575" width="250" height="7" fill="#76a700"/>
<rect x="40" y="582" width="250" height="2.5" fill="#dbff55"/>
<text x="50" y="575" class="bt">WMM (Wissensmanagement)</text>
<text x="50" y="598" class="bl">Zusammenbauten · funktionale SNR</text>
<path d="M290,588 L340,296" class="arr" marker-end="url(#ah)" marker-start="url(#ah)"/>
<rect x="245.89999999999998" y="429" width="138.20000000000002" height="13" rx="2" fill="#fff" opacity="0.9"/>
<text x="315" y="439" class="al">SNR lesen / schreiben</text>
<rect x="1040" y="110" width="260" height="78" rx="7" fill="#ffffff" stroke="#c7d0df" stroke-width="1.2"/>
<rect x="1040" y="110" width="260" height="22" rx="7" fill="#76a700"/>
<rect x="1040" y="125" width="260" height="7" fill="#76a700"/>
<rect x="1040" y="132" width="260" height="2.5" fill="#dbff55"/>
<text x="1050" y="125" class="bt">Jira CodeCraft</text>
<text x="1050" y="148" class="bl">Ticket je Speicher × SW-Stand</text>
<text x="1050" y="162" class="bl">(I-Stufe+PTH+Level) · Epic/I-Stufe</text>
<text x="1050" y="176" class="bl">Due=Freigabetag · Start=ATS-2</text>
<rect x="1040" y="250" width="260" height="78" rx="7" fill="#ffffff" stroke="#c7d0df" stroke-width="1.2"/>
<rect x="1040" y="250" width="260" height="22" rx="7" fill="#76a700"/>
<rect x="1040" y="265" width="260" height="7" fill="#76a700"/>
<rect x="1040" y="272" width="260" height="2.5" fill="#dbff55"/>
<text x="1050" y="265" class="bt">MIA</text>
<text x="1050" y="288" class="bl">MIA-Anlagen (techn. Prüfung)</text>
<text x="1050" y="302" class="bl">Bewertungsprozess-Name</text>
<text x="1050" y="316" class="bl">Verbund: n SNR → 1 MIA-Link</text>
<rect x="1040" y="390" width="260" height="78" rx="7" fill="#ffffff" stroke="#c7d0df" stroke-width="1.2"/>
<rect x="1040" y="390" width="260" height="22" rx="7" fill="#76a700"/>
<rect x="1040" y="405" width="260" height="7" fill="#76a700"/>
<rect x="1040" y="412" width="260" height="2.5" fill="#dbff55"/>
<text x="1050" y="405" class="bt">Freigabetemplate</text>
<text x="1050" y="428" class="bl">Word-Vorlage → SharePoint</text>
<text x="1050" y="442" class="bl">an Jira-Ticket angehängt</text>
<text x="1050" y="456" class="bl">Freeze −14 Tage</text>
<rect x="1040" y="510" width="260" height="50" rx="7" fill="#ffffff" stroke="#c7d0df" stroke-width="1.2"/>
<rect x="1040" y="510" width="260" height="22" rx="7" fill="#76a700"/>
<rect x="1040" y="525" width="260" height="7" fill="#76a700"/>
<rect x="1040" y="532" width="260" height="2.5" fill="#dbff55"/>
<text x="1050" y="525" class="bt">FUSI Confluence</text>
<text x="1050" y="548" class="bl">Dokumentation / Ablage</text>
<path d="M940,480 L1040,149" class="arr" marker-end="url(#ah)"/>
<rect x="964.3" y="301.5" width="51.4" height="13" rx="2" fill="#fff" opacity="0.9"/>
<text x="990" y="311.5" class="al">Tickets</text>
<path d="M940,500 L1040,289" class="arr" marker-end="url(#ah)"/>
<rect x="955" y="381.5" width="70" height="13" rx="2" fill="#fff" opacity="0.9"/>
<text x="990" y="391.5" class="al">MIA-Anlage</text>
<path d="M940,520 L1040,429" class="arr" marker-end="url(#ah)"/>
<rect x="961.2" y="461.5" width="57.6" height="13" rx="2" fill="#fff" opacity="0.9"/>
<text x="990" y="471.5" class="al">Word-Doc</text>
<path d="M940,540 L1040,535" class="arr" marker-end="url(#ah)"/>
<text x="40" y="100" class="zone">QUELLSYSTEME</text>
<text x="1040" y="100" class="zone">ZIELSYSTEME</text>
<text x="356" y="624" class="apps">Plattform-Flows: Power Automate · Custom Connectors (CDH, Jira) · SharePoint-Integration</text>
<rect x="40" y="650" width="1260" height="56" rx="7" fill="#f6f8fc" stroke="#d8dee9"/>
<text x="54" y="670" class="legttl">Legende</text>
<line x1="54" y1="690" x2="86" y2="690" class="arr arr--d" marker-end="url(#ah)"/><text x="94" y="694" class="legtxt">Eingang: Lesen aus Quellsystem (API / Connector)</text>
<line x1="430" y1="690" x2="462" y2="690" class="arr" marker-end="url(#ah)"/><text x="470" y="694" class="legtxt">Ausgang: Schreiben/Erzeugen im Zielsystem</text>
<line x1="770" y1="690" x2="802" y2="690" class="arr" marker-end="url(#ah)" marker-start="url(#ah)"/><text x="810" y="694" class="legtxt">bidirektional (WMM: SNR lesen und aktualisieren)</text>
</svg>