<svg xmlns="http://www.w3.org/2000/svg" viewBox="0 0 1300 1010" font-family="'Inter','Segoe UI',Arial,sans-serif">
<style>
  .box{fill:#fff;stroke:#d4d6e6;stroke-width:1.2;}
  .ttl{fill:#fff;font-size:12.5px;font-weight:700;}
  .fld{fill:#181833;font-size:11.5px;}
  .fpk{fill:#00002d;font-size:11.5px;font-weight:700;}
  .ffk{fill:#181833;font-size:11.5px;font-style:italic;}
  .sep{stroke:#eceef6;stroke-width:1;}
  .edge{stroke:#4a4a8a;stroke-width:1.4;fill:none;}
  .edge--dash{stroke-dasharray:5 4;stroke:#76a700;}
  .foot{stroke:#303090;stroke-width:1.6;fill:none;}
  .card{fill:#303090;font-size:9.5px;font-weight:700;text-anchor:middle;}
  .cardbg{fill:#ffffff;opacity:.88;}
  .legend{fill:#f5f6fb;stroke:#e4e5ef;stroke-width:1;}
  .legttl{fill:#00002d;font-size:12px;font-weight:700;}
  .legtxt{fill:#41435f;font-size:11px;}
</style>
<line x1="162.0" y1="360.0" x2="162.0" y2="273.0" class="edge"/>
<path d="M162.0,343.0 L169.0,360.0 M162.0,343.0 L155.0,360.0 M162.0,343.0 L162.0,360.0" class="foot"/>
<line x1="155.0" y1="285.0" x2="169.0" y2="285.0" class="foot"/>
<rect x="149.0" y="308.5" width="26" height="13" rx="2" class="cardbg"/>
<text x="162.0" y="318.5" class="card">N:1</text>
<line x1="162.0" y1="360.0" x2="162.0" y2="110.0" class="edge edge--dash"/>
<path d="M162.0,343.0 L169.0,360.0 M162.0,343.0 L155.0,360.0 M162.0,343.0 L162.0,360.0" class="foot"/>
<line x1="155.0" y1="122.0" x2="169.0" y2="122.0" class="foot"/>
<rect x="149.0" y="227.0" width="26" height="13" rx="2" class="cardbg"/>
<text x="162.0" y="237.0" class="card">N:1</text>
<line x1="330.0" y1="694.0" x2="284.0" y2="694.0" class="edge"/>
<path d="M313.0,694.0 L330.0,687.0 M313.0,694.0 L330.0,701.0 M313.0,694.0 L330.0,694.0" class="foot"/>
<line x1="296.0" y1="701.0" x2="296.0" y2="687.0" class="foot"/>
<rect x="294.0" y="686.0" width="26" height="13" rx="2" class="cardbg"/>
<text x="307.0" y="696.0" class="card">N:1</text>
<line x1="589.8" y1="205.0" x2="209.2" y2="640.0" class="edge edge--dash"/>
<path d="M578.6,217.8 L584.6,200.4 M578.6,217.8 L595.1,209.6 M578.6,217.8 L589.8,205.0" class="foot"/>
<path d="M220.4,627.2 L214.5,644.6 M220.4,627.2 L204.0,635.4 M220.4,627.2 L209.2,640.0" class="foot"/>
<rect x="386.5" y="414.5" width="26" height="13" rx="2" class="cardbg"/>
<text x="399.5" y="424.5" class="card">M:N</text>
<line x1="540.0" y1="110.9" x2="284.0" y2="86.6" class="edge edge--dash"/>
<path d="M523.1,109.3 L540.7,103.9 M523.1,109.3 L539.3,117.9 M523.1,109.3 L540.0,110.9" class="foot"/>
<path d="M300.9,88.2 L283.3,93.6 M300.9,88.2 L284.7,79.6 M300.9,88.2 L284.0,86.6" class="foot"/>
<rect x="399.0" y="90.8" width="26" height="13" rx="2" class="cardbg"/>
<text x="412.0" y="100.8" class="card">M:N</text>
<line x1="548.8" y1="477.0" x2="258.3" y2="640.0" class="edge edge--dash"/>
<path d="M534.0,485.3 L545.4,470.9 M534.0,485.3 L552.2,483.1 M534.0,485.3 L548.8,477.0" class="foot"/>
<path d="M273.1,631.7 L261.7,646.1 M273.1,631.7 L254.8,633.9 M273.1,631.7 L258.3,640.0" class="foot"/>
<rect x="390.5" y="550.5" width="26" height="13" rx="2" class="cardbg"/>
<text x="403.5" y="560.5" class="card">M:N</text>
<line x1="598.5" y1="590.0" x2="225.5" y2="273.0" class="edge"/>
<path d="M585.5,579.0 L603.0,584.7 M585.5,579.0 L593.9,595.3 M585.5,579.0 L598.5,590.0" class="foot"/>
<line x1="230.1" y1="286.1" x2="239.2" y2="275.4" class="foot"/>
<rect x="399.0" y="423.5" width="26" height="13" rx="2" class="cardbg"/>
<text x="412.0" y="433.5" class="card">N:1</text>
<line x1="612.0" y1="790.0" x2="204.6" y2="273.0" class="edge"/>
<path d="M601.4,776.6 L617.5,785.7 M601.4,776.6 L606.5,794.3 M601.4,776.6 L612.0,790.0" class="foot"/>
<line x1="206.5" y1="286.8" x2="217.5" y2="278.1" class="foot"/>
<rect x="395.3" y="523.5" width="26" height="13" rx="2" class="cardbg"/>
<text x="408.3" y="533.5" class="card">N:1</text>
<line x1="1010.0" y1="136.6" x2="284.0" y2="390.4" class="edge"/>
<path d="M994.0,142.2 L1007.7,130.0 M994.0,142.2 L1012.3,143.2 M994.0,142.2 L1010.0,136.6" class="foot"/>
<line x1="297.6" y1="393.0" x2="293.0" y2="379.8" class="foot"/>
<rect x="634.0" y="255.5" width="26" height="13" rx="2" class="cardbg"/>
<text x="647.0" y="265.5" class="card">1:1</text>
<line x1="1132.0" y1="215.0" x2="1132.0" y2="148.0" class="edge"/>
<path d="M1132.0,198.0 L1139.0,215.0 M1132.0,198.0 L1125.0,215.0 M1132.0,198.0 L1132.0,215.0" class="foot"/>
<line x1="1125.0" y1="160.0" x2="1139.0" y2="160.0" class="foot"/>
<rect x="1119.0" y="173.5" width="26" height="13" rx="2" class="cardbg"/>
<text x="1132.0" y="183.5" class="card">N:1</text>
<line x1="1010.0" y1="475.4" x2="284.0" y2="662.6" class="edge"/>
<path d="M993.5,479.7 L1008.3,468.7 M993.5,479.7 L1011.7,482.2 M993.5,479.7 L1010.0,475.4" class="foot"/>
<line x1="297.4" y1="666.3" x2="293.9" y2="652.8" class="foot"/>
<rect x="634.0" y="561.0" width="26" height="13" rx="2" class="cardbg"/>
<text x="647.0" y="571.0" class="card">N:1</text>
<line x1="1010.0" y1="442.6" x2="284.0" y2="434.4" class="edge"/>
<path d="M993.0,442.4 L1010.1,435.6 M993.0,442.4 L1009.9,449.6 M993.0,442.4 L1010.0,442.6" class="foot"/>
<line x1="295.9" y1="441.5" x2="296.1" y2="427.5" class="foot"/>
<rect x="634.0" y="430.5" width="26" height="13" rx="2" class="cardbg"/>
<text x="647.0" y="440.5" class="card">N:1</text>
<line x1="1080.9" y1="565.0" x2="740.1" y2="205.0" class="edge"/>
<path d="M1069.2,552.7 L1086.0,560.2 M1069.2,552.7 L1075.8,569.8 M1069.2,552.7 L1080.9,565.0" class="foot"/>
<line x1="743.3" y1="218.5" x2="753.4" y2="208.9" class="foot"/>
<rect x="897.5" y="377.0" width="26" height="13" rx="2" class="cardbg"/>
<text x="910.5" y="387.0" class="card">N:1</text>
<line x1="1010.0" y1="628.4" x2="284.0" y2="684.6" class="edge"/>
<path d="M993.1,629.7 L1009.5,621.5 M993.1,629.7 L1010.5,635.4 M993.1,629.7 L1010.0,628.4" class="foot"/>
<line x1="296.5" y1="690.6" x2="295.4" y2="676.7" class="foot"/>
<rect x="634.0" y="648.5" width="26" height="13" rx="2" class="cardbg"/>
<text x="647.0" y="658.5" class="card">N:1</text>
<line x1="1010.0" y1="766.1" x2="284.0" y2="480.9" class="edge"/>
<path d="M994.2,759.9 L1012.6,759.6 M994.2,759.9 L1007.4,772.6 M994.2,759.9 L1010.0,766.1" class="foot"/>
<line x1="292.6" y1="491.8" x2="297.7" y2="478.8" class="foot"/>
<rect x="634.0" y="615.5" width="26" height="13" rx="2" class="cardbg"/>
<text x="647.0" y="625.5" class="card">N:1</text>
<line x1="1010.0" y1="798.9" x2="284.0" y2="709.1" class="edge"/>
<path d="M993.1,796.8 L1010.9,792.0 M993.1,796.8 L1009.1,805.9 M993.1,796.8 L1010.0,798.9" class="foot"/>
<line x1="295.0" y1="717.5" x2="296.8" y2="703.6" class="foot"/>
<rect x="634.0" y="746.0" width="26" height="13" rx="2" class="cardbg"/>
<text x="647.0" y="756.0" class="card">N:1</text>
<g>
<rect x="40" y="40" width="244" height="70" rx="7" class="box"/>
<path d="M47,40 h230 a7,7 0 0 1 7,7 v19 h-244 v19 a7,7 0 0 1 7,-19 z" fill="#00002d"/>
<rect x="40" y="63" width="244" height="3" fill="#dbff55"/>
<text x="51" y="57" class="ttl">cr9b2_brv</text>
<text x="51" y="79" class="fpk">PK _id</text>
<line x1="40" y1="85" x2="284" y2="85" class="sep"/>
<text x="51" y="98" class="fld">cr9b2_name  «BRV»</text>
</g>
<g>
<rect x="40" y="165" width="244" height="108" rx="7" class="box"/>
<path d="M47,165 h230 a7,7 0 0 1 7,7 v19 h-244 v19 a7,7 0 0 1 7,-19 z" fill="#00002d"/>
<rect x="40" y="188" width="244" height="3" fill="#dbff55"/>
<text x="51" y="182" class="ttl">cr9b2_wbs_type_mapping</text>
<text x="51" y="204" class="fpk">PK _id</text>
<line x1="40" y1="210" x2="284" y2="210" class="sep"/>
<text x="51" y="223" class="fld">cr9b2_wbs_type</text>
<line x1="40" y1="229" x2="284" y2="229" class="sep"/>
<text x="51" y="242" class="fld">cr9b2_muster</text>
<line x1="40" y1="248" x2="284" y2="248" class="sep"/>
<text x="51" y="261" class="fld">cr9b2_name</text>
</g>
<g>
<rect x="40" y="360" width="244" height="146" rx="7" class="box"/>
<path d="M47,360 h230 a7,7 0 0 1 7,7 v19 h-244 v19 a7,7 0 0 1 7,-19 z" fill="#00002d"/>
<rect x="40" y="383" width="244" height="3" fill="#dbff55"/>
<text x="51" y="377" class="ttl">cr9b2_hvs</text>
<text x="51" y="399" class="fpk">PK key  «PK»</text>
<line x1="40" y1="405" x2="284" y2="405" class="sep"/>
<text x="51" y="418" class="fld">pnummer</text>
<line x1="40" y1="424" x2="284" y2="424" class="sep"/>
<text x="51" y="437" class="ffk">FK wbsType</text>
<line x1="40" y1="443" x2="284" y2="443" class="sep"/>
<text x="51" y="456" class="fld">penthouse</text>
<line x1="40" y1="462" x2="284" y2="462" class="sep"/>
<text x="51" y="475" class="fld">muster</text>
<line x1="40" y1="481" x2="284" y2="481" class="sep"/>
<text x="51" y="494" class="fld">bauphase</text>
</g>
<g>
<rect x="40" y="640" width="244" height="108" rx="7" class="box"/>
<path d="M47,640 h230 a7,7 0 0 1 7,7 v19 h-244 v19 a7,7 0 0 1 7,-19 z" fill="#00002d"/>
<rect x="40" y="663" width="244" height="3" fill="#dbff55"/>
<text x="51" y="657" class="ttl">cr9b2_ilevels_1  (ilevel)</text>
<text x="51" y="679" class="fpk">PK ilevel  «SE_TERMIN-REIFE»</text>
<line x1="40" y1="685" x2="284" y2="685" class="sep"/>
<text x="51" y="698" class="fld">number</text>
<line x1="40" y1="704" x2="284" y2="704" class="sep"/>
<text x="51" y="717" class="fld">ats</text>
<line x1="40" y1="723" x2="284" y2="723" class="sep"/>
<text x="51" y="736" class="fld">sab</text>
</g>
<g>
<rect x="330" y="640" width="244" height="108" rx="7" class="box"/>
<path d="M337,640 h230 a7,7 0 0 1 7,7 v19 h-244 v19 a7,7 0 0 1 7,-19 z" fill="#303090"/>
<rect x="330" y="663" width="244" height="3" fill="#dbff55"/>
<text x="341" y="657" class="ttl">ilevels_1  (Offset-Zeile)</text>
<text x="341" y="679" class="fpk">PK _id</text>
<line x1="330" y1="685" x2="574" y2="685" class="sep"/>
<text x="341" y="698" class="ffk">FK ilevel</text>
<line x1="330" y1="704" x2="574" y2="704" class="sep"/>
<text x="341" y="717" class="fld">offset</text>
<line x1="330" y1="723" x2="574" y2="723" class="sep"/>
<text x="341" y="736" class="fld">week</text>
</g>
<g>
<rect x="540" y="40" width="244" height="165" rx="7" class="box"/>
<path d="M547,40 h230 a7,7 0 0 1 7,7 v19 h-244 v19 a7,7 0 0 1 7,-19 z" fill="#00002d"/>
<rect x="540" y="63" width="244" height="3" fill="#dbff55"/>
<text x="551" y="57" class="ttl">cr9b2_planned_component_approvals</text>
<text x="551" y="79" class="fpk">PK _id</text>
<line x1="540" y1="85" x2="784" y2="85" class="sep"/>
<text x="551" y="98" class="fld">cr9b2_jirakey</text>
<line x1="540" y1="104" x2="784" y2="104" class="sep"/>
<text x="551" y="117" class="ffk">FK cr9b2_ilevelnames  «M:N»</text>
<line x1="540" y1="123" x2="784" y2="123" class="sep"/>
<text x="551" y="136" class="ffk">FK cr9b2_brvs  «M:N»</text>
<line x1="540" y1="142" x2="784" y2="142" class="sep"/>
<text x="551" y="155" class="fld">cr9b2_parentbranches</text>
<line x1="540" y1="161" x2="784" y2="161" class="sep"/>
<text x="551" y="174" class="fld">cr9b2_softwarestand</text>
<line x1="540" y1="180" x2="784" y2="180" class="sep"/>
<text x="551" y="193" class="fld">cr9b2_yearweek</text>
</g>
<g>
<rect x="540" y="350" width="244" height="127" rx="7" class="box"/>
<path d="M547,350 h230 a7,7 0 0 1 7,7 v19 h-244 v19 a7,7 0 0 1 7,-19 z" fill="#00002d"/>
<rect x="540" y="373" width="244" height="3" fill="#dbff55"/>
<text x="551" y="367" class="ttl">cr9b2_verbundfreigaben</text>
<text x="551" y="389" class="fpk">PK _id</text>
<line x1="540" y1="395" x2="784" y2="395" class="sep"/>
<text x="551" y="408" class="fld">cr9b2_collapseid</text>
<line x1="540" y1="414" x2="784" y2="414" class="sep"/>
<text x="551" y="427" class="ffk">FK cr9b2_ilevelnames  «M:N»</text>
<line x1="540" y1="433" x2="784" y2="433" class="sep"/>
<text x="551" y="446" class="fld">cr9b2_startdate</text>
<line x1="540" y1="452" x2="784" y2="452" class="sep"/>
<text x="551" y="465" class="fld">cr9b2_yearweek</text>
</g>
<g>
<rect x="540" y="590" width="244" height="108" rx="7" class="box"/>
<path d="M547,590 h230 a7,7 0 0 1 7,7 v19 h-244 v19 a7,7 0 0 1 7,-19 z" fill="#00002d"/>
<rect x="540" y="613" width="244" height="3" fill="#dbff55"/>
<text x="551" y="607" class="ttl">cr9b2_cdh_ip3</text>
<text x="551" y="629" class="fpk">PK _id</text>
<line x1="540" y1="635" x2="784" y2="635" class="sep"/>
<text x="551" y="648" class="fld">cr9b2_sollfreigabe</text>
<line x1="540" y1="654" x2="784" y2="654" class="sep"/>
<text x="551" y="667" class="ffk">FK cr9b2_wbs_type3clean</text>
<line x1="540" y1="673" x2="784" y2="673" class="sep"/>
<text x="551" y="686" class="fld">cr9b2_startweek</text>
</g>
<g>
<rect x="540" y="790" width="244" height="127" rx="7" class="box"/>
<path d="M547,790 h230 a7,7 0 0 1 7,7 v19 h-244 v19 a7,7 0 0 1 7,-19 z" fill="#00002d"/>
<rect x="540" y="813" width="244" height="3" fill="#dbff55"/>
<text x="551" y="807" class="ttl">cr9b2_ip3_freigaben</text>
<text x="551" y="829" class="fpk">PK _id</text>
<line x1="540" y1="835" x2="784" y2="835" class="sep"/>
<text x="551" y="848" class="fld">sollFreigabe</text>
<line x1="540" y1="854" x2="784" y2="854" class="sep"/>
<text x="551" y="867" class="ffk">FK wbsType</text>
<line x1="540" y1="873" x2="784" y2="873" class="sep"/>
<text x="551" y="886" class="fld">penthouse</text>
<line x1="540" y1="892" x2="784" y2="892" class="sep"/>
<text x="551" y="905" class="fld">startWeek</text>
</g>
<g>
<rect x="1010" y="40" width="244" height="108" rx="7" class="box"/>
<path d="M1017,40 h230 a7,7 0 0 1 7,7 v19 h-244 v19 a7,7 0 0 1 7,-19 z" fill="#76a700"/>
<rect x="1010" y="63" width="244" height="3" fill="#dbff55"/>
<text x="1021" y="57" class="ttl">WMM_RECORD</text>
<text x="1021" y="79" class="fpk">PK hvsKey</text>
<line x1="1010" y1="85" x2="1254" y2="85" class="sep"/>
<text x="1021" y="98" class="fld">zsmbId</text>
<line x1="1010" y1="104" x2="1254" y2="104" class="sep"/>
<text x="1021" y="117" class="fld">status</text>
<line x1="1010" y1="123" x2="1254" y2="123" class="sep"/>
<text x="1021" y="136" class="fld">lastCheckedAt</text>
</g>
<g>
<rect x="1010" y="215" width="244" height="108" rx="7" class="box"/>
<path d="M1017,215 h230 a7,7 0 0 1 7,7 v19 h-244 v19 a7,7 0 0 1 7,-19 z" fill="#303090"/>
<rect x="1010" y="238" width="244" height="3" fill="#dbff55"/>
<text x="1021" y="232" class="ttl">SACHNUMMER</text>
<text x="1021" y="254" class="ffk">FK hvsKey</text>
<line x1="1010" y1="260" x2="1254" y2="260" class="sep"/>
<text x="1021" y="273" class="fld">nummer</text>
<line x1="1010" y1="279" x2="1254" y2="279" class="sep"/>
<text x="1021" y="292" class="fld">type</text>
<line x1="1010" y1="298" x2="1254" y2="298" class="sep"/>
<text x="1021" y="311" class="fld">label</text>
</g>
<g>
<rect x="1010" y="390" width="244" height="108" rx="7" class="box"/>
<path d="M1017,390 h230 a7,7 0 0 1 7,7 v19 h-244 v19 a7,7 0 0 1 7,-19 z" fill="#76a700"/>
<rect x="1010" y="413" width="244" height="3" fill="#dbff55"/>
<text x="1021" y="407" class="ttl">ENTANGLEMENT  (Verschränkung)</text>
<text x="1021" y="429" class="fpk">PK id</text>
<line x1="1010" y1="435" x2="1254" y2="435" class="sep"/>
<text x="1021" y="448" class="ffk">FK istufe</text>
<line x1="1010" y1="454" x2="1254" y2="454" class="sep"/>
<text x="1021" y="467" class="ffk">FK speicher</text>
<line x1="1010" y1="473" x2="1254" y2="473" class="sep"/>
<text x="1021" y="486" class="fld">reife</text>
</g>
<g>
<rect x="1010" y="565" width="244" height="108" rx="7" class="box"/>
<path d="M1017,565 h230 a7,7 0 0 1 7,7 v19 h-244 v19 a7,7 0 0 1 7,-19 z" fill="#76a700"/>
<rect x="1010" y="588" width="244" height="3" fill="#dbff55"/>
<text x="1021" y="582" class="ttl">APPROVAL_MOVE  (Verschiebung)</text>
<text x="1021" y="604" class="fpk">PK id</text>
<line x1="1010" y1="610" x2="1254" y2="610" class="sep"/>
<text x="1021" y="623" class="ffk">FK sourceJiraKey</text>
<line x1="1010" y1="629" x2="1254" y2="629" class="sep"/>
<text x="1021" y="642" class="ffk">FK movedIstufe</text>
<line x1="1010" y1="648" x2="1254" y2="648" class="sep"/>
<text x="1021" y="661" class="fld">toYearWeek</text>
</g>
<g>
<rect x="1010" y="760" width="244" height="108" rx="7" class="box"/>
<path d="M1017,760 h230 a7,7 0 0 1 7,7 v19 h-244 v19 a7,7 0 0 1 7,-19 z" fill="#76a700"/>
<rect x="1010" y="783" width="244" height="3" fill="#dbff55"/>
<text x="1021" y="777" class="ttl">IST_STAND  (Freigabe-Ist · Fakt)</text>
<text x="1021" y="799" class="fpk">PK istufe|week|hvsKey</text>
<line x1="1010" y1="805" x2="1254" y2="805" class="sep"/>
<text x="1021" y="818" class="ffk">FK istufe</text>
<line x1="1010" y1="824" x2="1254" y2="824" class="sep"/>
<text x="1021" y="837" class="ffk">FK hvsKey</text>
<line x1="1010" y1="843" x2="1254" y2="843" class="sep"/>
<text x="1021" y="856" class="fld">level</text>
</g>
<rect x="40" y="905" width="1220" height="78" rx="7" class="legend"/>
<text x="54" y="925" class="legttl">Legende</text>
<rect x="58" y="934" width="16" height="12" rx="2" fill="#00002d"/>
<text x="84" y="943" class="legtxt">Dataverse-Tabelle (real)</text>
<rect x="363" y="934" width="16" height="12" rx="2" fill="#303090"/>
<text x="389" y="943" class="legtxt">Exploded / Kind-Tabelle</text>
<rect x="668" y="934" width="16" height="12" rx="2" fill="#76a700"/>
<text x="694" y="943" class="legtxt">App-lokal (geplant für Dataverse)</text>
<text x="973" y="943" class="fpk">PK</text>
<text x="999" y="943" class="legtxt">PK = Primärschlüssel (fett)</text>
<text x="58" y="965" class="ffk">FK</text>
<text x="84" y="965" class="legtxt">FK = Fremdschlüssel (kursiv)</text>
<path d="M354.0,962.0 L371.0,955.0 M354.0,962.0 L371.0,969.0 M354.0,962.0 L371.0,962.0" class="foot"/>
<text x="389" y="965" class="legtxt">Krähenfuß = „viele" (N / M)</text>
<line x1="664.0" y1="955.0" x2="664.0" y2="969.0" class="foot"/>
<text x="694" y="965" class="legtxt">Querstrich = „eins" (1)</text>
<line x1="973" y1="962" x2="993" y2="962" class="edge edge--dash"/>
<text x="999" y="965" class="legtxt">gestrichelt = M:N / abgeleitet</text>
</svg>